<svg xmlns="http://www.w3.org/2000/svg" width="1024" height="1024" viewBox="0 0 1024 1024" version="1.1">
	<path d="M 506.199 175.749 C 506.583 184.412, 506.880 224.575, 506.858 265 C 506.814 344.590, 506.692 346.664, 501.300 359.475 C 494.213 376.313, 481.016 388.411, 465.356 392.425 C 457.004 394.566, 443.435 394.385, 432.592 391.987 C 423.492 389.976, 419.438 388.244, 426.315 389.306 C 429.437 389.788, 441.322 388.905, 448 387.694 C 448.825 387.545, 452.060 386.202, 455.188 384.711 C 458.317 383.220, 461.393 382, 462.025 382 C 463.655 382, 472.104 375.949, 474.392 373.143 C 475.449 371.847, 476.943 370.272, 477.712 369.643 C 482.106 366.051, 485 362.902, 485 361.714 C 485 360.970, 486.125 359.382, 487.500 358.187 C 489.477 356.468, 490 355.068, 490 351.493 C 490 349.007, 490.374 346.191, 490.831 345.236 C 491.288 344.281, 492.413 342.001, 493.331 340.169 C 494.249 338.337, 495 336.392, 495 335.848 C 495 335.303, 495.563 334.230, 496.250 333.463 C 498.991 330.407, 499.668 329.384, 500.209 327.482 C 500.519 326.392, 501.078 324.600, 501.450 323.500 C 501.823 322.400, 501.362 322.850, 500.426 324.500 C 497.185 330.218, 484.967 343.909, 479.027 348.479 C 466.829 357.865, 453.151 363.424, 424 370.840 C 415.475 373.009, 403.887 376.496, 398.250 378.589 C 388.045 382.377, 388 382.408, 388 385.747 C 388 393.194, 382.817 398.003, 374.800 397.996 C 362.654 397.986, 356.897 385.288, 365.278 376.994 C 369.343 372.971, 372.587 371.700, 376.781 372.487 C 379.295 372.958, 381.682 372.347, 386.791 369.925 C 394.524 366.258, 404.842 362.257, 408.194 361.625 C 413.365 360.650, 435.039 354.929, 437.672 353.845 C 439.227 353.204, 441.063 352.771, 441.750 352.883 C 442.438 352.996, 443 352.618, 443 352.044 C 443 351.470, 443.900 351, 445 351 C 446.100 351, 447 350.592, 447 350.094 C 447 349.595, 447.900 349.423, 449 349.710 C 450.118 350.003, 451 349.741, 451 349.117 C 451 348.502, 451.409 348, 451.908 348 C 453.391 348, 462.149 339.050, 461.575 338.121 C 461.285 337.652, 461.881 336.513, 462.901 335.590 C 465.128 333.574, 466.518 324.836, 465.048 322.090 C 464.486 321.040, 463.849 318.003, 463.633 315.341 C 463.416 312.678, 462.911 309.262, 462.511 307.750 C 462.023 305.905, 462.167 305, 462.951 305 C 463.593 305, 463.852 304.570, 463.527 304.044 C 463.202 303.518, 462.275 303.341, 461.468 303.651 C 460.464 304.036, 460 303.549, 460 302.107 C 460 300.948, 459.550 300, 459 300 C 458.450 300, 458 298.971, 458 297.713 C 458 296.072, 457.377 295.379, 455.796 295.260 C 453.112 295.057, 450.784 296.809, 451.671 298.363 C 452.028 298.988, 451.966 299.180, 451.532 298.788 C 451.098 298.397, 447.764 300.707, 444.122 303.922 C 431.300 315.241, 421.214 320.365, 391.500 330.655 C 366.861 339.189, 361.166 343.597, 346.516 365.478 C 330.320 389.669, 320.170 411.741, 313.628 437 C 308.231 457.837, 307.734 462.752, 308.264 490.052 C 308.722 513.663, 308.858 515.014, 312.251 529.500 C 320.026 562.697, 332.364 586.821, 355.211 613.500 C 374.340 635.838, 404.105 656.107, 434.500 667.496 C 458.988 676.671, 483.546 680.587, 511 679.696 C 530.277 679.070, 541.851 677.442, 558.583 673.003 C 613.694 658.381, 660.013 620.011, 684.460 568.732 C 697.527 541.323, 703.303 515.857, 703.226 486 C 703.112 441.450, 688.572 398.953, 659.605 358.500 C 650.450 345.715, 625.342 315.568, 592.976 278.500 C 567.286 249.077, 552.365 230.889, 536.181 209.271 C 528.181 198.583, 514.871 177.750, 510.613 169.250 C 508.065 164.162, 505.872 159.999, 505.740 159.999 C 505.608 159.998, 505.814 167.086, 506.199 175.749 M 554.972 290.750 C 562.928 301.082, 584.868 320.466, 586.622 318.712 C 586.963 318.370, 586.112 316.158, 584.730 313.795 C 583.347 311.433, 580.773 306.656, 579.009 303.181 C 576.501 298.241, 575.441 297.014, 574.151 297.560 C 568.539 299.931, 565.090 298.740, 558.329 292.098 C 553.540 287.394, 551.872 286.724, 554.972 290.750 M 455.872 291.750 C 454.629 293.336, 454.664 293.371, 456.250 292.128 C 457.916 290.821, 458.445 290, 457.622 290 C 457.415 290, 456.627 290.788, 455.872 291.750 M 572.603 294.833 C 572.320 295.292, 572.723 295.667, 573.500 295.667 C 574.277 295.667, 574.680 295.292, 574.397 294.833 C 574.114 294.375, 573.710 294, 573.500 294 C 573.290 294, 572.886 294.375, 572.603 294.833 M 416.950 338.093 C 414.420 342.820, 418.022 346.705, 424.128 345.833 C 427.539 345.346, 428.962 340.720, 426.527 338.030 C 424.005 335.243, 418.456 335.280, 416.950 338.093 M 630.500 359.859 C 630.500 378.122, 629.661 382.453, 623.705 394.944 C 621.481 399.608, 618.259 403.817, 612.540 409.530 C 595.127 426.921, 568.625 435.275, 536 433.657 C 513.434 432.538, 501.439 429.802, 463.500 417.121 C 436.327 408.038, 425.492 405.812, 408 405.716 C 381.145 405.570, 360.422 412.459, 343.374 427.202 C 329.992 438.774, 320.985 459.114, 321.007 477.708 C 321.025 492.934, 330.171 516.387, 342.470 532.748 C 354.255 548.426, 376.217 563.701, 398.151 571.477 L 405.801 574.189 406.492 578.844 C 409.456 598.811, 421.889 619.255, 438.946 632.206 C 462.654 650.208, 496.946 656.161, 533.378 648.599 C 545.234 646.138, 545.264 646.137, 548.864 648.067 C 560.599 654.357, 575.855 643.158, 572.971 630.371 C 572.498 628.273, 572.198 626.485, 572.305 626.399 C 572.412 626.313, 575.087 624.599, 578.250 622.590 C 581.413 620.582, 584 618.676, 584 618.354 C 584 618.033, 582.801 618.555, 581.336 619.515 C 579.871 620.475, 577.177 622.143, 575.349 623.222 L 572.025 625.183 569.484 622.163 C 564.300 616.003, 553.112 614.307, 547.087 618.769 C 542.896 621.872, 540 626.916, 540 631.113 C 540 635.818, 539.179 636.310, 527.444 638.634 C 515.547 640.989, 491.466 641.016, 481.257 638.685 C 463.606 634.654, 448.020 626.121, 437.221 614.577 C 427.840 604.549, 420.915 591.703, 418.664 580.152 L 418.011 576.805 424.255 577.516 L 430.500 578.228 440.500 587.907 C 454.751 601.700, 465.580 607.813, 482.302 611.503 C 491.986 613.639, 514.275 613.158, 523.337 610.617 C 536.706 606.868, 554.568 596.563, 566.549 585.687 C 572.328 580.441, 572.996 580.122, 581.549 578.533 C 608.286 573.566, 633.354 560.313, 654.314 540.063 C 665.394 529.358, 677.592 512.985, 676.536 510.234 C 676.254 509.498, 676.402 509.130, 676.865 509.417 C 677.819 510.006, 680.367 505.034, 679.537 504.204 C 679.242 503.909, 679 504.218, 679 504.892 C 679 505.566, 678.550 505.840, 678 505.500 C 677.450 505.160, 677 505.385, 677 506 C 677 506.615, 676.543 506.835, 675.984 506.490 C 675.425 506.144, 675.143 505.555, 675.358 505.181 C 675.573 504.806, 675.412 502.025, 675 499 C 674.570 495.838, 674.658 492.720, 675.207 491.664 C 675.732 490.655, 675.933 489.600, 675.653 489.320 C 675.183 488.849, 670 499.274, 670 500.692 C 670 503.928, 652.907 526.047, 644.120 534.183 C 626.456 550.537, 600.873 563.609, 580 566.946 C 571.556 568.296, 552.825 568.288, 543.692 566.932 C 529.205 564.780, 512.707 559.219, 515.220 557.335 C 517.039 555.972, 544.081 544.215, 550.843 541.848 C 556.102 540.007, 557.399 539.948, 569.263 541.018 C 584.065 542.352, 593.319 541.751, 608.146 538.495 C 626.517 534.460, 640.103 526.994, 654.332 513.115 C 662.236 505.405, 672 492.788, 672 490.284 C 672 489.764, 673.118 488.740, 674.483 488.009 C 675.849 487.278, 677.220 485.883, 677.529 484.908 C 677.838 483.934, 680.096 481.962, 682.546 480.526 C 685.491 478.800, 687 477.230, 687 475.892 C 687 468.065, 675.563 464.304, 669.391 470.103 C 668.114 471.303, 666.125 475.119, 664.973 478.583 C 661.979 487.579, 656.027 496.270, 646.399 505.704 C 639.478 512.485, 636.246 514.783, 627.763 518.954 C 599.804 532.701, 571.142 533.503, 543 521.325 C 529.845 515.632, 513 507.060, 513 506.058 C 513 505.642, 517.612 505.015, 523.250 504.665 C 557.485 502.539, 607.092 480.973, 624.156 460.798 C 637.690 444.797, 645.153 426.294, 646.657 405.012 C 647.925 387.083, 642.364 363.423, 633.225 347.859 L 630.500 343.218 630.500 359.859 M 587.061 392.983 C 585.169 395.129, 583.310 396.691, 582.928 396.456 C 582.547 396.220, 581.170 396.809, 579.868 397.764 C 573.752 402.248, 569.964 403.400, 561.170 403.448 C 554.271 403.485, 551.479 403.037, 547.500 401.252 C 544.734 400.012, 543.387 399.692, 544.486 400.537 C 547.775 403.068, 558.830 406, 565.085 406 C 572.565 406, 578.432 403.730, 583.530 398.863 C 586.874 395.670, 591.892 388.897, 590.807 389.041 C 590.638 389.063, 588.952 390.837, 587.061 392.983 M 660.463 396 C 660.742 397.375, 661.301 402.100, 661.705 406.500 L 662.439 414.500 663.087 408.035 C 663.609 402.826, 663.368 400.785, 661.845 397.535 C 660.698 395.085, 660.155 394.482, 660.463 396 M 539.226 397.579 C 540.176 398.570, 541.168 399.166, 541.431 398.903 C 541.694 398.640, 540.917 397.829, 539.705 397.100 C 537.598 395.835, 537.577 395.857, 539.226 397.579 M 634.097 400.810 C 632.974 403.012, 629.379 408.118, 626.110 412.157 C 613.115 428.211, 596.185 437.694, 570.750 443.168 C 561.989 445.053, 557.419 445.372, 539.301 445.364 C 527.641 445.359, 518.318 445.706, 518.584 446.136 C 519.737 448.002, 536.437 458.334, 544.112 461.931 C 555.434 467.237, 565.056 469.333, 578.500 469.424 C 592.028 469.516, 596.802 468.035, 606.470 460.751 C 618.378 451.780, 626.848 439.324, 632.392 422.626 C 634.742 415.551, 637.572 398.238, 636.546 397.213 C 636.323 396.989, 635.220 398.608, 634.097 400.810 M 389.567 419.465 C 367.479 423.373, 347.995 436.283, 340.389 452.050 C 334.581 464.090, 333.679 468.200, 334.241 480.054 C 334.828 492.438, 335.692 494.936, 337.536 489.573 C 340.262 481.643, 349.915 470.478, 358.288 465.571 C 375.052 455.747, 397.109 454.164, 421.593 461.028 L 428.687 463.017 435.593 459.899 C 439.392 458.184, 448.125 454.086, 455 450.792 C 461.875 447.497, 471.100 443.221, 475.500 441.289 C 479.900 439.357, 483.826 437.479, 484.223 437.115 C 485.308 436.123, 445.918 423.182, 435 420.943 C 422.285 418.336, 400.039 417.612, 389.567 419.465 M 663.195 428.500 C 663.215 430.150, 663.439 430.704, 663.693 429.731 C 663.947 428.758, 663.930 427.408, 663.656 426.731 C 663.382 426.054, 663.175 426.850, 663.195 428.500 M 489.500 448.962 C 481.959 450.957, 468.638 456.794, 452.196 465.310 L 441.892 470.647 456.157 477.434 C 472.984 485.440, 487.399 490.364, 498.963 492.055 C 509.017 493.525, 528.444 492.817, 538.681 490.607 C 547.857 488.626, 568 482.132, 568 481.154 C 568 480.744, 566.315 480.295, 564.255 480.157 C 558.925 479.798, 544.039 474.658, 533.500 469.539 C 528.550 467.134, 518.691 461.079, 511.591 456.083 C 504.491 451.087, 498.191 447.025, 497.591 447.055 C 496.991 447.085, 493.350 447.943, 489.500 448.962 M 643.329 463.458 C 641.585 464.216, 639.672 465.744, 639.079 466.853 C 637.660 469.505, 637.704 474.554, 639.168 476.897 C 640.252 478.633, 640.790 478.381, 646.681 473.383 C 650.171 470.422, 653.471 468, 654.013 468 C 656.065 468, 654.878 465.896, 651.750 463.989 C 647.942 461.668, 647.507 461.640, 643.329 463.458 M 384.500 469.649 C 366.661 473.364, 355.641 480.840, 349.522 493.379 C 348.147 496.195, 346.506 501.086, 345.874 504.246 C 344.886 509.191, 344.974 510.656, 346.507 514.746 C 348.845 520.985, 353.273 526.930, 361.965 535.500 C 367.727 541.181, 369.245 542.217, 370.017 541 C 371.139 539.233, 371.345 525.003, 370.250 524.993 C 368.300 524.975, 365 518.123, 365 514.092 C 365 506.541, 370.104 501.086, 377.427 500.810 C 380.276 500.703, 381.412 499.994, 383.384 497.089 C 388.470 489.599, 395.752 483.426, 407.383 476.747 C 416.005 471.795, 416.039 471.919, 405.566 470.056 C 399.788 469.028, 388.526 468.810, 384.500 469.649 M 422.471 483.396 C 407.624 488.048, 388.809 503.924, 392.058 509.059 C 393.461 511.277, 393.168 516.774, 391.472 520.055 C 390.631 521.681, 388.156 524.139, 385.972 525.518 C 382.153 527.928, 382.002 528.227, 382.047 533.263 C 382.072 536.143, 382.635 541.425, 383.297 545 L 384.500 551.500 394 556.245 C 399.225 558.855, 404.236 560.993, 405.136 560.995 C 406.321 560.999, 406.968 559.700, 407.479 556.290 C 409.382 543.603, 417.761 528.109, 428.447 517.521 C 436.847 509.197, 447.744 502.858, 459.079 499.701 C 463.426 498.491, 466.875 497.163, 466.742 496.751 C 466.481 495.942, 444.996 485.757, 438.624 483.421 C 433.939 481.703, 427.905 481.694, 422.471 483.396 M 618.570 496.678 C 617.755 498.802, 620.331 501.471, 622.422 500.668 C 623.290 500.335, 624 498.924, 624 497.531 C 624 495.528, 623.501 495, 621.607 495 C 620.290 495, 618.925 495.754, 618.570 496.678 M 467.490 509.974 C 461.216 511.288, 452.234 514.665, 447.668 517.428 C 442.102 520.794, 436.367 525.700, 437.118 526.452 C 437.452 526.785, 441.949 527.698, 447.112 528.481 C 452.275 529.264, 459.171 530.831, 462.436 531.963 C 467.887 533.852, 498.422 549.168, 500.321 550.965 C 500.772 551.392, 506.397 549.182, 512.821 546.053 C 519.244 542.923, 527.987 538.850, 532.250 537.001 C 536.513 535.152, 540 533.357, 540 533.012 C 540 532.668, 535.662 530.454, 530.360 528.093 C 525.058 525.731, 514.146 520.582, 506.110 516.650 L 491.500 509.500 481.500 509.317 C 476 509.217, 469.695 509.512, 467.490 509.974 M 430.550 541.063 C 428.378 541.607, 425.809 542.767, 424.843 543.642 C 422.847 545.449, 419.254 555.760, 418.802 560.981 L 418.500 564.461 426.500 565.784 C 439.164 567.878, 458.078 566.769, 471 563.175 C 484.216 559.500, 487.284 558.269, 486.479 556.966 C 485.610 555.560, 464.948 545.555, 457.500 542.934 C 450.627 540.515, 436.623 539.543, 430.550 541.063 M 650.966 561.064 C 650.146 562.596, 650.168 563.498, 651.053 564.564 C 652.608 566.438, 654.095 566.412, 653.371 564.523 C 653.009 563.581, 653.734 562.623, 655.371 561.877 C 658.379 560.506, 657.910 559, 654.476 559 C 653.069 559, 651.612 559.857, 650.966 561.064 M 350 565.500 C 348.472 567.342, 350.244 570, 353 570 C 355.756 570, 357.528 567.342, 356 565.500 C 355.315 564.675, 353.965 564, 353 564 C 352.035 564, 350.685 564.675, 350 565.500 M 492 568.723 C 480.941 572.968, 466.923 576.711, 457.062 578.052 L 447.624 579.335 451.562 582.801 C 458.729 589.108, 469.644 595.634, 477.124 598.084 C 483.679 600.231, 486.281 600.500, 500.500 600.498 C 517.937 600.495, 523.467 599.331, 535.902 593.046 C 542.201 589.861, 554 581.455, 554 580.151 C 554 579.681, 550.288 579.027, 545.750 578.698 C 535.346 577.942, 520.391 574.149, 509.689 569.553 C 505.140 567.599, 500.761 566.051, 499.959 566.114 C 499.156 566.177, 495.575 567.351, 492 568.723 M 371.384 577.442 C 370.319 580.217, 371.456 582.500, 373.905 582.500 C 377.059 582.500, 378.846 579.724, 377.070 577.584 C 375.428 575.606, 372.120 575.523, 371.384 577.442 M 626.789 577.363 C 624.127 579.386, 622.928 583.496, 624.057 586.733 C 625.130 589.811, 629.171 592.987, 629.761 591.216 C 630.529 588.912, 637.100 582.868, 638.991 582.726 C 641.639 582.526, 641.526 581.435, 638.545 578.455 C 635.782 575.691, 629.730 575.129, 626.789 577.363 M 602.556 589.910 C 602.247 590.410, 602.273 591.548, 602.615 592.439 C 603.175 593.900, 603.369 593.884, 604.586 592.279 C 605.329 591.301, 605.951 590.163, 605.968 589.750 C 606.013 588.686, 603.231 588.817, 602.556 589.910 M 381 592.481 C 381 594.054, 384.190 600.382, 386.526 603.445 C 390.829 609.086, 401.479 615.055, 411.500 617.442 C 414.415 618.136, 414.386 618.073, 410.500 615.231 C 408.300 613.623, 404.311 609.561, 401.635 606.205 C 397.793 601.386, 395.113 599.241, 388.885 596.001 C 384.548 593.745, 381 592.161, 381 592.481 M 583.408 595.378 C 582.599 597.487, 583.735 599, 586.129 599 C 587.639 599, 588.060 598.443, 587.820 596.760 C 587.447 594.146, 584.264 593.149, 583.408 595.378 M 588.500 614.649 C 585.489 617.340, 585.263 617.713, 587.589 616.158 C 590.353 614.310, 593.829 610.941, 592.872 611.038 C 592.668 611.058, 590.700 612.683, 588.500 614.649" stroke="none" fill="black" fill-rule="evenodd"/>
</svg>